/vscmnt/brussel_pixiu_data/_data_brussel/112/vsc11236/PredSimResults/SUBJ06opt3D/expIG/worker_02.mot
version=1
nRows=4
nColumns=50
inDegrees=yes
endheader
                time	         pelvis_tilt	         pelvis_list	     pelvis_rotation	           pelvis_tx	           pelvis_ty	           pelvis_tz	       hip_flexion_r	     hip_adduction_r	      hip_rotation_r	        knee_angle_r	       ankle_angle_r	         mtp_angle_r	       hip_flexion_l	     hip_adduction_l	      hip_rotation_l	        knee_angle_l	       ankle_angle_l	         mtp_angle_l	    lumbar_extension	      lumbar_bending	     lumbar_rotation	 ercspn_r/activation	 intobl_r/activation	 extobl_r/activation	    abd_r/activation	    add_r/activation	hamstrings_r/activation	bifemsh_r/activation	glut_max_r/activation	iliopsoas_r/activation	rect_fem_r/activation	  vasti_r/activation	gastroc_r/activation	 soleus_r/activation	tib_ant_r/activation	 ercspn_l/activation	 intobl_l/activation	 extobl_l/activation	    abd_l/activation	    add_l/activation	hamstrings_l/activation	bifemsh_l/activation	glut_max_l/activation	iliopsoas_l/activation	rect_fem_l/activation	  vasti_l/activation	gastroc_l/activation	 soleus_l/activation	tib_ant_l/activation	
          0.00000000	          0.40346911	         -5.28150686	         10.52674087	          0.00000000	          0.95501385	         -0.02629925	         16.31515233	          2.93646170	        -23.22431468	          0.68869800	         -3.92283599	          0.21024355	        -11.93122174	         -7.99695484	        -13.42535402	        -12.46173509	          8.31966570	         29.68284624	         -6.71027505	          3.41778642	         -5.48204857	          0.18354105	          0.20926404	          0.01000014	          0.01000000	          0.13983971	          0.02898956	          0.01000027	          0.01660988	          0.03429724	          0.09169214	          0.11403017	          0.01000003	          0.01000001	          0.42112683	          0.06922679	          0.01000001	          0.01000002	          0.08519272	          0.01000003	          0.01000030	          0.10441608	          0.02910331	          0.09871328	          0.03359105	          0.01000017	          0.18113256	          0.30590227	          0.01274178	
          0.01645072	          0.30391440	         -5.01643132	         10.50684789	          0.01583357	          0.95327826	         -0.02459538	         15.44771173	          2.94010705	        -23.30068995	          0.69215372	         -4.17661280	          0.19361625	        -12.45856568	         -8.05456347	        -13.98698873	        -13.11279654	          7.52178196	         31.17949756	         -6.23003581	          3.58140840	         -5.67437755	          0.14425710	          0.20177793	          0.01000007	          0.01000001	          0.10974895	          0.03233019	          0.01000030	          0.01469829	          0.02691715	          0.07196177	          0.08949316	          0.01274104	          0.01026099	          0.45223890	          0.08490039	          0.01000001	          0.01000003	          0.06686089	          0.01000006	          0.01000131	          0.08194788	          0.02284086	          0.07747218	          0.02636294	          0.01683359	          0.16474931	          0.28878221	          0.01000002	
          0.03290144	          0.21244714	         -4.79191812	         10.41481124	          0.03192795	          0.95187478	         -0.02270996	         14.61898636	          2.97045153	        -23.45011353	          0.59895803	         -4.61071248	          0.18439021	        -12.85076617	         -8.19500588	        -14.54365967	        -14.04586495	          6.56844761	         32.70599341	         -5.73815213	          3.82176439	         -5.84052966	          0.11468741	          0.15835925	          0.01000004	          0.01939992	          0.08613314	          0.04636171	          0.01000073	          0.03921820	          0.02112511	          0.05647699	          0.07023600	          0.01000006	          0.01000001	          0.49179067	          0.12184589	          0.01000001	          0.01000004	          0.05247372	          0.01000440	          0.02625314	          0.06431448	          0.01792596	          0.06080186	          0.02069017	          0.01321143	          0.12929853	          0.26601582	          0.01000001	
          0.04935216	          0.12691609	         -4.61607336	         10.26090608	          0.04803115	          0.95114186	         -0.02055996	         13.88228136	          3.03234666	        -23.65499509	          0.31608761	         -4.79448370	          0.15903286	        -12.96766997	         -8.46078880	        -15.08019175	        -15.45681218	          5.37805728	         34.27255385	         -5.25518480	          4.12200764	         -5.98443427	          0.11100385	          0.12428341	          0.01000004	          0.05693858	          0.06759900	          0.05082012	          0.01000281	          0.05608101	          0.01657941	          0.04432424	          0.05512259	          0.01000005	          0.01000001	          0.49645631	          0.14423333	          0.01000001	          0.01000005	          0.04118239	          0.06332120	          0.02586551	          0.05047685	          0.01406865	          0.07017976	          0.01623806	          0.01036862	          0.10147600	          0.23883774	          0.01000001	
